<mxfile host="app.diagrams.net" modified="2024-03-11T10:54:15.756Z" agent="Mozilla/5.0 (Windows NT 10.0; Win64; x64) AppleWebKit/537.36 (KHTML, like Gecko) Chrome/122.0.0.0 Safari/537.36" etag="FtcvYOSU1PJv9DxGS75R" version="24.0.4" type="device">
  <diagram id="C5RBs43oDa-KdzZeNtuy" name="Page-1">
    <mxGraphModel dx="1313" dy="663" grid="1" gridSize="10" guides="1" tooltips="1" connect="1" arrows="1" fold="1" page="1" pageScale="1" pageWidth="827" pageHeight="1169" math="0" shadow="0">
      <root>
        <mxCell id="WIyWlLk6GJQsqaUBKTNV-0" />
        <mxCell id="WIyWlLk6GJQsqaUBKTNV-1" parent="WIyWlLk6GJQsqaUBKTNV-0" />
        <mxCell id="p44ijvxH5VeEPfA5o3Oa-99" style="edgeStyle=orthogonalEdgeStyle;rounded=0;orthogonalLoop=1;jettySize=auto;html=1;exitX=0;exitY=0.5;exitDx=0;exitDy=0;" edge="1" parent="WIyWlLk6GJQsqaUBKTNV-1" source="p44ijvxH5VeEPfA5o3Oa-0">
          <mxGeometry relative="1" as="geometry">
            <mxPoint x="560" y="180.0000000000001" as="targetPoint" />
          </mxGeometry>
        </mxCell>
        <mxCell id="p44ijvxH5VeEPfA5o3Oa-105" style="edgeStyle=orthogonalEdgeStyle;rounded=0;orthogonalLoop=1;jettySize=auto;html=1;entryX=0.5;entryY=0;entryDx=0;entryDy=0;" edge="1" parent="WIyWlLk6GJQsqaUBKTNV-1" source="p44ijvxH5VeEPfA5o3Oa-0" target="p44ijvxH5VeEPfA5o3Oa-103">
          <mxGeometry relative="1" as="geometry" />
        </mxCell>
        <mxCell id="p44ijvxH5VeEPfA5o3Oa-108" style="edgeStyle=orthogonalEdgeStyle;rounded=0;orthogonalLoop=1;jettySize=auto;html=1;entryX=0.5;entryY=0;entryDx=0;entryDy=0;" edge="1" parent="WIyWlLk6GJQsqaUBKTNV-1" source="p44ijvxH5VeEPfA5o3Oa-0" target="p44ijvxH5VeEPfA5o3Oa-107">
          <mxGeometry relative="1" as="geometry" />
        </mxCell>
        <mxCell id="p44ijvxH5VeEPfA5o3Oa-111" style="edgeStyle=orthogonalEdgeStyle;rounded=0;orthogonalLoop=1;jettySize=auto;html=1;entryX=0.5;entryY=0;entryDx=0;entryDy=0;" edge="1" parent="WIyWlLk6GJQsqaUBKTNV-1" source="p44ijvxH5VeEPfA5o3Oa-0" target="p44ijvxH5VeEPfA5o3Oa-110">
          <mxGeometry relative="1" as="geometry" />
        </mxCell>
        <mxCell id="p44ijvxH5VeEPfA5o3Oa-116" style="edgeStyle=orthogonalEdgeStyle;rounded=0;orthogonalLoop=1;jettySize=auto;html=1;entryX=0.5;entryY=0;entryDx=0;entryDy=0;" edge="1" parent="WIyWlLk6GJQsqaUBKTNV-1" source="p44ijvxH5VeEPfA5o3Oa-0" target="p44ijvxH5VeEPfA5o3Oa-115">
          <mxGeometry relative="1" as="geometry" />
        </mxCell>
        <mxCell id="p44ijvxH5VeEPfA5o3Oa-0" value="Entities" style="rounded=1;whiteSpace=wrap;html=1;" vertex="1" parent="WIyWlLk6GJQsqaUBKTNV-1">
          <mxGeometry x="660" y="90" width="90" height="40" as="geometry" />
        </mxCell>
        <mxCell id="p44ijvxH5VeEPfA5o3Oa-122" style="edgeStyle=orthogonalEdgeStyle;rounded=0;orthogonalLoop=1;jettySize=auto;html=1;entryX=1;entryY=0.5;entryDx=0;entryDy=0;" edge="1" parent="WIyWlLk6GJQsqaUBKTNV-1" source="p44ijvxH5VeEPfA5o3Oa-1" target="p44ijvxH5VeEPfA5o3Oa-100">
          <mxGeometry relative="1" as="geometry" />
        </mxCell>
        <mxCell id="p44ijvxH5VeEPfA5o3Oa-1" value="User" style="rounded=1;whiteSpace=wrap;html=1;" vertex="1" parent="WIyWlLk6GJQsqaUBKTNV-1">
          <mxGeometry x="660" y="180" width="90" height="40" as="geometry" />
        </mxCell>
        <mxCell id="p44ijvxH5VeEPfA5o3Oa-106" style="edgeStyle=orthogonalEdgeStyle;rounded=0;orthogonalLoop=1;jettySize=auto;html=1;entryX=1;entryY=0.5;entryDx=0;entryDy=0;" edge="1" parent="WIyWlLk6GJQsqaUBKTNV-1" source="p44ijvxH5VeEPfA5o3Oa-2" target="p44ijvxH5VeEPfA5o3Oa-1">
          <mxGeometry relative="1" as="geometry" />
        </mxCell>
        <mxCell id="p44ijvxH5VeEPfA5o3Oa-2" value="Admin" style="rounded=1;whiteSpace=wrap;html=1;" vertex="1" parent="WIyWlLk6GJQsqaUBKTNV-1">
          <mxGeometry x="800" y="180" width="90" height="40" as="geometry" />
        </mxCell>
        <mxCell id="p44ijvxH5VeEPfA5o3Oa-3" value="" style="endArrow=classic;html=1;rounded=0;entryX=0.5;entryY=0;entryDx=0;entryDy=0;exitX=0.5;exitY=1;exitDx=0;exitDy=0;" edge="1" parent="WIyWlLk6GJQsqaUBKTNV-1" source="p44ijvxH5VeEPfA5o3Oa-0" target="p44ijvxH5VeEPfA5o3Oa-1">
          <mxGeometry width="50" height="50" relative="1" as="geometry">
            <mxPoint x="610" y="120" as="sourcePoint" />
            <mxPoint x="710" y="280" as="targetPoint" />
            <Array as="points" />
          </mxGeometry>
        </mxCell>
        <mxCell id="p44ijvxH5VeEPfA5o3Oa-4" value="" style="endArrow=classic;html=1;rounded=0;entryX=0.5;entryY=0;entryDx=0;entryDy=0;exitX=1;exitY=0.5;exitDx=0;exitDy=0;" edge="1" parent="WIyWlLk6GJQsqaUBKTNV-1" source="p44ijvxH5VeEPfA5o3Oa-0">
          <mxGeometry width="50" height="50" relative="1" as="geometry">
            <mxPoint x="965" y="110" as="sourcePoint" />
            <mxPoint x="850" y="180" as="targetPoint" />
            <Array as="points">
              <mxPoint x="850" y="110" />
            </Array>
          </mxGeometry>
        </mxCell>
        <mxCell id="p44ijvxH5VeEPfA5o3Oa-101" style="edgeStyle=orthogonalEdgeStyle;rounded=0;orthogonalLoop=1;jettySize=auto;html=1;" edge="1" parent="WIyWlLk6GJQsqaUBKTNV-1" source="p44ijvxH5VeEPfA5o3Oa-100" target="p44ijvxH5VeEPfA5o3Oa-1">
          <mxGeometry relative="1" as="geometry" />
        </mxCell>
        <mxCell id="p44ijvxH5VeEPfA5o3Oa-114" style="edgeStyle=orthogonalEdgeStyle;rounded=0;orthogonalLoop=1;jettySize=auto;html=1;exitX=0.5;exitY=1;exitDx=0;exitDy=0;entryX=0.75;entryY=1;entryDx=0;entryDy=0;" edge="1" parent="WIyWlLk6GJQsqaUBKTNV-1" source="p44ijvxH5VeEPfA5o3Oa-100" target="p44ijvxH5VeEPfA5o3Oa-2">
          <mxGeometry relative="1" as="geometry">
            <mxPoint x="850" y="250.0000000000001" as="targetPoint" />
            <mxPoint x="605" y="229.9999999999999" as="sourcePoint" />
            <Array as="points">
              <mxPoint x="560" y="280" />
              <mxPoint x="870" y="280" />
              <mxPoint x="870" y="250" />
              <mxPoint x="868" y="250" />
            </Array>
          </mxGeometry>
        </mxCell>
        <mxCell id="p44ijvxH5VeEPfA5o3Oa-148" style="edgeStyle=orthogonalEdgeStyle;rounded=0;orthogonalLoop=1;jettySize=auto;html=1;" edge="1" parent="WIyWlLk6GJQsqaUBKTNV-1" source="p44ijvxH5VeEPfA5o3Oa-100" target="p44ijvxH5VeEPfA5o3Oa-103">
          <mxGeometry relative="1" as="geometry" />
        </mxCell>
        <mxCell id="p44ijvxH5VeEPfA5o3Oa-100" value="Bank Account" style="rounded=1;whiteSpace=wrap;html=1;" vertex="1" parent="WIyWlLk6GJQsqaUBKTNV-1">
          <mxGeometry x="515" y="180" width="90" height="40" as="geometry" />
        </mxCell>
        <mxCell id="p44ijvxH5VeEPfA5o3Oa-104" style="edgeStyle=orthogonalEdgeStyle;rounded=0;orthogonalLoop=1;jettySize=auto;html=1;entryX=0;entryY=0.5;entryDx=0;entryDy=0;" edge="1" parent="WIyWlLk6GJQsqaUBKTNV-1" source="p44ijvxH5VeEPfA5o3Oa-103" target="p44ijvxH5VeEPfA5o3Oa-100">
          <mxGeometry relative="1" as="geometry" />
        </mxCell>
        <mxCell id="p44ijvxH5VeEPfA5o3Oa-150" style="edgeStyle=orthogonalEdgeStyle;rounded=0;orthogonalLoop=1;jettySize=auto;html=1;" edge="1" parent="WIyWlLk6GJQsqaUBKTNV-1" source="p44ijvxH5VeEPfA5o3Oa-103" target="p44ijvxH5VeEPfA5o3Oa-110">
          <mxGeometry relative="1" as="geometry" />
        </mxCell>
        <mxCell id="p44ijvxH5VeEPfA5o3Oa-103" value="Cards" style="rounded=1;whiteSpace=wrap;html=1;" vertex="1" parent="WIyWlLk6GJQsqaUBKTNV-1">
          <mxGeometry x="390" y="180" width="90" height="40" as="geometry" />
        </mxCell>
        <mxCell id="p44ijvxH5VeEPfA5o3Oa-109" style="edgeStyle=orthogonalEdgeStyle;rounded=0;orthogonalLoop=1;jettySize=auto;html=1;entryX=1;entryY=0.5;entryDx=0;entryDy=0;" edge="1" parent="WIyWlLk6GJQsqaUBKTNV-1" source="p44ijvxH5VeEPfA5o3Oa-107" target="p44ijvxH5VeEPfA5o3Oa-2">
          <mxGeometry relative="1" as="geometry" />
        </mxCell>
        <mxCell id="p44ijvxH5VeEPfA5o3Oa-107" value="Messages" style="rounded=1;whiteSpace=wrap;html=1;" vertex="1" parent="WIyWlLk6GJQsqaUBKTNV-1">
          <mxGeometry x="930" y="180" width="90" height="40" as="geometry" />
        </mxCell>
        <mxCell id="p44ijvxH5VeEPfA5o3Oa-112" style="edgeStyle=orthogonalEdgeStyle;rounded=0;orthogonalLoop=1;jettySize=auto;html=1;entryX=0.5;entryY=1;entryDx=0;entryDy=0;" edge="1" parent="WIyWlLk6GJQsqaUBKTNV-1" source="p44ijvxH5VeEPfA5o3Oa-110" target="p44ijvxH5VeEPfA5o3Oa-1">
          <mxGeometry relative="1" as="geometry">
            <Array as="points">
              <mxPoint x="315" y="240" />
              <mxPoint x="705" y="240" />
            </Array>
          </mxGeometry>
        </mxCell>
        <mxCell id="p44ijvxH5VeEPfA5o3Oa-113" style="edgeStyle=orthogonalEdgeStyle;rounded=0;orthogonalLoop=1;jettySize=auto;html=1;entryX=0.5;entryY=1;entryDx=0;entryDy=0;" edge="1" parent="WIyWlLk6GJQsqaUBKTNV-1" target="p44ijvxH5VeEPfA5o3Oa-2">
          <mxGeometry relative="1" as="geometry">
            <mxPoint x="350" y="239.9999999999999" as="sourcePoint" />
            <mxPoint x="835" y="260.0000000000001" as="targetPoint" />
            <Array as="points">
              <mxPoint x="350" y="260" />
              <mxPoint x="845" y="260" />
            </Array>
          </mxGeometry>
        </mxCell>
        <mxCell id="p44ijvxH5VeEPfA5o3Oa-149" style="edgeStyle=orthogonalEdgeStyle;rounded=0;orthogonalLoop=1;jettySize=auto;html=1;exitX=1;exitY=0.5;exitDx=0;exitDy=0;entryX=0;entryY=0.5;entryDx=0;entryDy=0;" edge="1" parent="WIyWlLk6GJQsqaUBKTNV-1" source="p44ijvxH5VeEPfA5o3Oa-110" target="p44ijvxH5VeEPfA5o3Oa-103">
          <mxGeometry relative="1" as="geometry" />
        </mxCell>
        <mxCell id="p44ijvxH5VeEPfA5o3Oa-110" value="Transactions" style="rounded=1;whiteSpace=wrap;html=1;" vertex="1" parent="WIyWlLk6GJQsqaUBKTNV-1">
          <mxGeometry x="270" y="180" width="90" height="40" as="geometry" />
        </mxCell>
        <mxCell id="p44ijvxH5VeEPfA5o3Oa-117" style="edgeStyle=orthogonalEdgeStyle;rounded=0;orthogonalLoop=1;jettySize=auto;html=1;entryX=0.25;entryY=0;entryDx=0;entryDy=0;exitX=1;exitY=0.5;exitDx=0;exitDy=0;" edge="1" parent="WIyWlLk6GJQsqaUBKTNV-1" source="p44ijvxH5VeEPfA5o3Oa-115" target="p44ijvxH5VeEPfA5o3Oa-100">
          <mxGeometry relative="1" as="geometry">
            <mxPoint x="240" y="159.9999999999999" as="sourcePoint" />
            <mxPoint x="537.5" y="140.0000000000001" as="targetPoint" />
            <Array as="points">
              <mxPoint x="250" y="200" />
              <mxPoint x="250" y="160" />
              <mxPoint x="538" y="160" />
            </Array>
          </mxGeometry>
        </mxCell>
        <mxCell id="p44ijvxH5VeEPfA5o3Oa-119" style="edgeStyle=orthogonalEdgeStyle;rounded=0;orthogonalLoop=1;jettySize=auto;html=1;exitX=0.5;exitY=1;exitDx=0;exitDy=0;entryX=0.5;entryY=0;entryDx=0;entryDy=0;" edge="1" parent="WIyWlLk6GJQsqaUBKTNV-1" source="p44ijvxH5VeEPfA5o3Oa-115" target="p44ijvxH5VeEPfA5o3Oa-118">
          <mxGeometry relative="1" as="geometry" />
        </mxCell>
        <mxCell id="p44ijvxH5VeEPfA5o3Oa-115" value="Credit" style="rounded=1;whiteSpace=wrap;html=1;" vertex="1" parent="WIyWlLk6GJQsqaUBKTNV-1">
          <mxGeometry x="150" y="180" width="90" height="40" as="geometry" />
        </mxCell>
        <mxCell id="p44ijvxH5VeEPfA5o3Oa-120" style="edgeStyle=orthogonalEdgeStyle;rounded=0;orthogonalLoop=1;jettySize=auto;html=1;exitX=1;exitY=0.5;exitDx=0;exitDy=0;entryX=0.25;entryY=1;entryDx=0;entryDy=0;" edge="1" parent="WIyWlLk6GJQsqaUBKTNV-1" source="p44ijvxH5VeEPfA5o3Oa-118" target="p44ijvxH5VeEPfA5o3Oa-1">
          <mxGeometry relative="1" as="geometry">
            <Array as="points">
              <mxPoint x="240" y="290" />
              <mxPoint x="683" y="290" />
            </Array>
          </mxGeometry>
        </mxCell>
        <mxCell id="p44ijvxH5VeEPfA5o3Oa-121" style="edgeStyle=orthogonalEdgeStyle;rounded=0;orthogonalLoop=1;jettySize=auto;html=1;entryX=0.25;entryY=1;entryDx=0;entryDy=0;" edge="1" parent="WIyWlLk6GJQsqaUBKTNV-1" source="p44ijvxH5VeEPfA5o3Oa-118" target="p44ijvxH5VeEPfA5o3Oa-2">
          <mxGeometry relative="1" as="geometry">
            <Array as="points">
              <mxPoint x="195" y="310" />
              <mxPoint x="823" y="310" />
            </Array>
          </mxGeometry>
        </mxCell>
        <mxCell id="p44ijvxH5VeEPfA5o3Oa-118" value="Credit history" style="rounded=1;whiteSpace=wrap;html=1;" vertex="1" parent="WIyWlLk6GJQsqaUBKTNV-1">
          <mxGeometry x="150" y="260" width="90" height="40" as="geometry" />
        </mxCell>
        <mxCell id="p44ijvxH5VeEPfA5o3Oa-136" style="edgeStyle=orthogonalEdgeStyle;rounded=0;orthogonalLoop=1;jettySize=auto;html=1;exitX=1;exitY=0.5;exitDx=0;exitDy=0;entryX=0;entryY=0.5;entryDx=0;entryDy=0;" edge="1" parent="WIyWlLk6GJQsqaUBKTNV-1" source="p44ijvxH5VeEPfA5o3Oa-137" target="p44ijvxH5VeEPfA5o3Oa-139">
          <mxGeometry relative="1" as="geometry" />
        </mxCell>
        <mxCell id="p44ijvxH5VeEPfA5o3Oa-137" value="&lt;font style=&quot;font-size: 14px;&quot;&gt;Store with functions (Client)&lt;/font&gt;" style="rounded=1;whiteSpace=wrap;html=1;" vertex="1" parent="WIyWlLk6GJQsqaUBKTNV-1">
          <mxGeometry x="340" y="510" width="120" height="60" as="geometry" />
        </mxCell>
        <mxCell id="p44ijvxH5VeEPfA5o3Oa-138" style="edgeStyle=orthogonalEdgeStyle;rounded=0;orthogonalLoop=1;jettySize=auto;html=1;exitX=1;exitY=0.5;exitDx=0;exitDy=0;entryX=0;entryY=0.5;entryDx=0;entryDy=0;" edge="1" parent="WIyWlLk6GJQsqaUBKTNV-1" source="p44ijvxH5VeEPfA5o3Oa-139" target="p44ijvxH5VeEPfA5o3Oa-141">
          <mxGeometry relative="1" as="geometry" />
        </mxCell>
        <mxCell id="p44ijvxH5VeEPfA5o3Oa-139" value="&lt;font style=&quot;font-size: 14px;&quot;&gt;Client Service (API call)&lt;/font&gt;" style="rounded=1;whiteSpace=wrap;html=1;" vertex="1" parent="WIyWlLk6GJQsqaUBKTNV-1">
          <mxGeometry x="540" y="510" width="120" height="60" as="geometry" />
        </mxCell>
        <mxCell id="p44ijvxH5VeEPfA5o3Oa-140" style="edgeStyle=orthogonalEdgeStyle;rounded=0;orthogonalLoop=1;jettySize=auto;html=1;exitX=1;exitY=0.5;exitDx=0;exitDy=0;entryX=0;entryY=0.5;entryDx=0;entryDy=0;" edge="1" parent="WIyWlLk6GJQsqaUBKTNV-1" source="p44ijvxH5VeEPfA5o3Oa-141" target="p44ijvxH5VeEPfA5o3Oa-142">
          <mxGeometry relative="1" as="geometry" />
        </mxCell>
        <mxCell id="p44ijvxH5VeEPfA5o3Oa-141" value="&lt;font style=&quot;font-size: 14px;&quot;&gt;Server Controller&lt;/font&gt;" style="rounded=1;whiteSpace=wrap;html=1;" vertex="1" parent="WIyWlLk6GJQsqaUBKTNV-1">
          <mxGeometry x="740" y="510" width="120" height="60" as="geometry" />
        </mxCell>
        <mxCell id="p44ijvxH5VeEPfA5o3Oa-142" value="&lt;font style=&quot;font-size: 14px;&quot;&gt;Server Service (DB changes)&lt;/font&gt;" style="rounded=1;whiteSpace=wrap;html=1;" vertex="1" parent="WIyWlLk6GJQsqaUBKTNV-1">
          <mxGeometry x="940" y="510" width="120" height="60" as="geometry" />
        </mxCell>
        <mxCell id="p44ijvxH5VeEPfA5o3Oa-143" style="edgeStyle=orthogonalEdgeStyle;rounded=0;orthogonalLoop=1;jettySize=auto;html=1;exitX=0;exitY=0.5;exitDx=0;exitDy=0;entryX=0.5;entryY=0;entryDx=0;entryDy=0;" edge="1" parent="WIyWlLk6GJQsqaUBKTNV-1" source="p44ijvxH5VeEPfA5o3Oa-147" target="p44ijvxH5VeEPfA5o3Oa-137">
          <mxGeometry relative="1" as="geometry" />
        </mxCell>
        <mxCell id="p44ijvxH5VeEPfA5o3Oa-144" style="edgeStyle=orthogonalEdgeStyle;rounded=0;orthogonalLoop=1;jettySize=auto;html=1;exitX=0;exitY=1;exitDx=0;exitDy=0;entryX=0.5;entryY=0;entryDx=0;entryDy=0;" edge="1" parent="WIyWlLk6GJQsqaUBKTNV-1" source="p44ijvxH5VeEPfA5o3Oa-147" target="p44ijvxH5VeEPfA5o3Oa-139">
          <mxGeometry relative="1" as="geometry" />
        </mxCell>
        <mxCell id="p44ijvxH5VeEPfA5o3Oa-145" style="edgeStyle=orthogonalEdgeStyle;rounded=0;orthogonalLoop=1;jettySize=auto;html=1;exitX=1;exitY=1;exitDx=0;exitDy=0;entryX=0.5;entryY=0;entryDx=0;entryDy=0;" edge="1" parent="WIyWlLk6GJQsqaUBKTNV-1" source="p44ijvxH5VeEPfA5o3Oa-147" target="p44ijvxH5VeEPfA5o3Oa-141">
          <mxGeometry relative="1" as="geometry" />
        </mxCell>
        <mxCell id="p44ijvxH5VeEPfA5o3Oa-146" style="edgeStyle=orthogonalEdgeStyle;rounded=0;orthogonalLoop=1;jettySize=auto;html=1;exitX=1;exitY=0.5;exitDx=0;exitDy=0;entryX=0.5;entryY=0;entryDx=0;entryDy=0;" edge="1" parent="WIyWlLk6GJQsqaUBKTNV-1" source="p44ijvxH5VeEPfA5o3Oa-147" target="p44ijvxH5VeEPfA5o3Oa-142">
          <mxGeometry relative="1" as="geometry" />
        </mxCell>
        <mxCell id="p44ijvxH5VeEPfA5o3Oa-147" value="&lt;font style=&quot;font-size: 14px;&quot;&gt;&lt;b&gt;HTTP Schema&lt;/b&gt;&lt;/font&gt;" style="ellipse;whiteSpace=wrap;html=1;" vertex="1" parent="WIyWlLk6GJQsqaUBKTNV-1">
          <mxGeometry x="645" y="390" width="120" height="80" as="geometry" />
        </mxCell>
      </root>
    </mxGraphModel>
  </diagram>
</mxfile>
